<?xml version="1.0" encoding="UTF-8"?>
<svg xmlns="http://www.w3.org/2000/svg" xmlns:xlink="http://www.w3.org/1999/xlink" width="512px" height="410px" viewBox="0 0 512 410" version="1.1">
<defs>
<linearGradient id="linear0" gradientUnits="userSpaceOnUse" x1="38.779999" y1="7.75" x2="7.75" y2="7.75" gradientTransform="matrix(12.8,0,0,12.8125,0,0)">
<stop offset="0" style="stop-color:rgb(20%,47.843137%,71.764706%);stop-opacity:1;"/>
<stop offset="1" style="stop-color:rgb(55.294118%,77.254902%,44.705882%);stop-opacity:1;"/>
</linearGradient>
<linearGradient id="linear1" gradientUnits="userSpaceOnUse" x1="0" y1="23.27" x2="31.02" y2="23.27" gradientTransform="matrix(12.8,0,0,12.8125,0,0)">
<stop offset="0" style="stop-color:rgb(98.431373%,86.27451%,55.686275%);stop-opacity:1;"/>
<stop offset="1" style="stop-color:rgb(74.509804%,39.215686%,39.215686%);stop-opacity:1;"/>
</linearGradient>
</defs>
<g id="surface1">
<path style=" stroke:none;fill-rule:nonzero;fill:url(#linear0);" d="M 496.394531 198.757812 C 496.394531 146.042969 475.476562 95.488281 438.238281 58.214844 C 401 20.941406 350.496094 0 297.832031 0 C 245.171875 0 194.667969 20.941406 157.429688 58.214844 C 120.191406 95.488281 99.269531 146.042969 99.269531 198.757812 L 161.320312 198.757812 C 181.882812 198.757812 197.921875 181.507812 205.453125 162.355469 C 210.394531 149.78125 217.898438 138.226562 227.628906 128.484375 C 246.25 109.847656 271.503906 99.378906 297.832031 99.378906 C 324.164062 99.378906 349.417969 109.847656 368.035156 128.484375 C 386.65625 147.121094 397.113281 172.398438 397.113281 198.757812 Z M 496.394531 198.757812 "/>
<path style=" stroke:none;fill-rule:nonzero;fill:rgb(98.431373%,81.176472%,55.686277%);fill-opacity:1;" d="M 382.007812 274.816406 C 391.988281 250.703125 397.125 224.855469 397.125 198.757812 L 496.394531 198.757812 C 496.394531 308.527344 407.496094 397.511719 297.832031 397.511719 C 280.660156 397.511719 263.992188 395.328125 248.101562 391.226562 C 257.09375 388.90625 265.929688 385.953125 274.546875 382.382812 C 298.640625 372.394531 320.527344 357.753906 338.96875 339.296875 C 357.40625 320.839844 372.03125 298.929688 382.007812 274.816406 Z M 382.007812 274.816406 "/>
<path style=" stroke:none;fill-rule:nonzero;fill:url(#linear1);" d="M 0 198.753906 C 0 224.855469 5.136719 250.703125 15.113281 274.816406 C 25.09375 298.929688 39.71875 320.839844 58.15625 339.296875 C 76.597656 357.753906 98.484375 372.394531 122.574219 382.382812 C 146.667969 392.371094 172.488281 397.511719 198.5625 397.511719 C 224.636719 397.511719 250.457031 392.371094 274.546875 382.382812 C 298.640625 372.394531 320.527344 357.753906 338.96875 339.296875 C 357.40625 320.839844 372.03125 298.929688 382.007812 274.816406 C 391.988281 250.703125 397.125 224.855469 397.125 198.753906 L 335.074219 198.753906 C 314.511719 198.753906 298.476562 216.003906 290.945312 235.152344 C 285.296875 248.84375 277.984375 259.800781 268.765625 269.027344 C 259.546875 278.253906 248.601562 285.574219 236.554688 290.570312 C 224.511719 295.5625 211.601562 298.132812 198.5625 298.132812 C 185.523438 298.132812 172.613281 295.5625 160.570312 290.570312 C 148.523438 285.574219 137.578125 278.253906 128.359375 269.027344 C 119.140625 259.800781 111.828125 248.84375 106.839844 236.785156 C 101.847656 224.730469 99.28125 211.804688 99.28125 198.753906 Z M 0 198.753906 "/>
<path style=" stroke:none;fill-rule:nonzero;fill:rgb(45.09804%,89.803922%,88.627452%);fill-opacity:1;" d="M 0.0195312 198.757812 C 0.0195312 88.984375 88.917969 0 198.582031 0 C 215.75 0 232.414062 2.179688 248.304688 6.28125 C 214.207031 15.074219 182.75 32.867188 157.429688 58.214844 C 120.191406 95.488281 99.269531 146.042969 99.269531 198.757812 Z M 0.0195312 198.757812 "/>
</g>
</svg>
