<svg class="" width="160" height="128" viewBox="0 0 40 32" fill="none" xmlns="http://www.w3.org/2000/svg">
  <defs>
    <linearGradient id="ntropiaGradientMain" x1="38.78" y1="7.75" x2="7.75" y2="7.75" gradientUnits="userSpaceOnUse">
      <stop stop-color="#337ab7" />
      <stop offset="1" stop-color="#8dc572" />
    </linearGradient>
    <linearGradient id="ntropiaGradientBottom" x1="0" y1="23.27" x2="31.02" y2="23.27" gradientUnits="userSpaceOnUse">
      <stop stop-color="#FBDC8E" />
      <stop offset="1" stop-color="#be6464" />
    </linearGradient>
  </defs>
  <path d="M38.7809 15.5127C38.7809 11.3985 37.1465 7.45275 34.2373 4.54356C31.3281 1.63437 27.3824 0 23.2682 0C19.154 0 15.2083 1.63437 12.2991 4.54356C9.38989 7.45275 7.75552 11.3985 7.75552 15.5127H12.6033C14.2097 15.5127 15.4625 14.1665 16.0509 12.6717C16.4372 11.6903 17.0234 10.7884 17.7836 10.0281C19.2382 8.57352 21.2111 7.75634 23.2682 7.75634C25.3253 7.75634 27.2982 8.57352 28.7528 10.0281C30.2074 11.4827 31.0245 13.4556 31.0245 15.5127H38.7809Z" fill="url(#ntropiaGradientMain)" />
  <path d="M29.8445 21.4491C30.6241 19.567 31.0254 17.5498 31.0254 15.5127H38.7809C38.7809 24.0801 31.8356 31.0253 23.2682 31.0253C21.9265 31.0253 20.6245 30.855 19.3829 30.5348C20.0854 30.3538 20.7759 30.1233 21.4491 29.8445C23.3312 29.0649 25.0413 27.9223 26.4818 26.4818C27.9223 25.0413 29.065 23.3312 29.8445 21.4491Z" fill="#FBCF8E" />
  <path d="M0 15.5126C0 17.5498 0.401247 19.567 1.18083 21.4491C1.96042 23.3312 3.10307 25.0413 4.54356 26.4818C5.98404 27.9222 7.69415 29.0649 9.57623 29.8445C11.4583 30.6241 13.4755 31.0253 15.5127 31.0253C17.5498 31.0253 19.567 30.6241 21.4491 29.8445C23.3312 29.0649 25.0413 27.9222 26.4818 26.4818C27.9223 25.0413 29.0649 23.3312 29.8445 21.4491C30.6241 19.567 31.0254 17.5498 31.0254 15.5126H26.1776C24.5712 15.5126 23.3184 16.8588 22.73 18.3535C22.2888 19.4219 21.7175 20.277 20.9972 20.9972C20.277 21.7174 19.4219 22.2888 18.4809 22.6786C17.5399 23.0684 16.5313 23.269 15.5127 23.269C14.4941 23.269 13.4855 23.0684 12.5445 22.6786C11.6034 22.2888 10.7484 21.7174 10.0281 20.9972C9.30787 20.277 8.73655 19.4219 8.34676 18.4809C7.95696 17.5398 7.75634 16.5312 7.75634 15.5126H0Z" fill="url(#ntropiaGradientBottom)" />
  <path d="M0.00158691 15.5127C0.00158691 6.94524 6.94683 0 15.5142 0C16.8556 0 18.1572 0.170246 19.3987 0.490323C16.7348 1.17657 14.2774 2.56535 12.2991 4.54357C9.38992 7.45273 7.75557 11.3985 7.75557 15.5127H0.00158691Z" fill="#73E5E2" />
</svg>
